<?xml version="1.0" encoding="utf-8"?>
<!-- Generator: Adobe Illustrator 17.0.0, SVG Export Plug-In . SVG Version: 6.00 Build 0)  -->
<!DOCTYPE svg PUBLIC "-//W3C//DTD SVG 1.1//EN" "http://www.w3.org/Graphics/SVG/1.1/DTD/svg11.dtd">
<svg version="1.1" id="图层_1" xmlns="http://www.w3.org/2000/svg" xmlns:xlink="http://www.w3.org/1999/xlink" x="0px" y="0px"
	 width="80px" height="80px" viewBox="0 0 80 80" enable-background="new 0 0 80 80" xml:space="preserve">
<g>
	<path d="M40.38,72.195h-0.658c-1.608,0-2.923,1.306-2.923,2.902c0,1.596,1.315,2.902,2.923,2.902c0.263,0,0.541,0,0.804-0.015
		c1.608-0.044,2.894-1.364,2.85-2.975C43.332,73.4,42.002,72.094,40.38,72.195z"/>
	<path d="M53.005,55.175c0.006-0.006,0.011-0.011,0.017-0.017c1.14-1.132,1.14-2.975,0-4.107L42.675,40.776V23.768
		c0-1.596-1.315-2.902-2.923-2.902c-1.608,0-2.923,1.306-2.923,2.902v19.417l12.058,11.972
		C50.019,56.292,51.863,56.299,53.005,55.175z"/>
	<path d="M56.632,70.947c-0.652-1.458-2.37-2.115-3.838-1.468c-0.002,0.001-0.004,0.002-0.006,0.002
		c-0.424,0.189-0.862,0.363-1.301,0.537c-1.505,0.581-2.251,2.264-1.666,3.759c0.585,1.489,2.275,2.225,3.774,1.644
		c0.004-0.001,0.008-0.003,0.011-0.004c0.526-0.203,1.038-0.421,1.535-0.639c1.477-0.648,2.145-2.362,1.492-3.828
		C56.633,70.949,56.633,70.948,56.632,70.947z"/>
	<path d="M39.722,7.805h0.731c1.593,0,2.894-1.263,2.923-2.844C43.405,3.364,42.119,2.029,40.512,2h-0.789
		c-1.614,0-2.923,1.299-2.923,2.902C36.799,6.505,38.108,7.805,39.722,7.805z"/>
	<path d="M51.444,9.982c0.438,0.174,0.877,0.348,1.315,0.537c0.38,0.174,0.789,0.247,1.169,0.247
		c1.161-0.002,2.21-0.685,2.675-1.741c0.643-1.466-0.029-3.178-1.505-3.831c-0.511-0.218-1.023-0.435-1.549-0.638
		c-1.505-0.581-3.201,0.16-3.785,1.654C49.193,7.718,49.938,9.401,51.444,9.982z"/>
	<path d="M32.429,71.31C15.081,67.014,4.485,49.513,8.811,32.287C11.602,21.171,20.24,12.289,31.333,9.125
		c1.547-0.445,2.441-2.046,2.002-3.584c-0.451-1.533-2.061-2.42-3.61-1.988C16.63,7.297,6.443,17.775,3.14,30.894
		c-5.101,20.317,7.395,40.982,27.872,46.061c1.569,0.389,3.159-0.559,3.551-2.117c0-0.001,0-0.001,0-0.002
		C34.943,73.284,33.993,71.702,32.429,71.31z"/>
	<path d="M63.151,62.254c-0.322,0.334-0.658,0.668-1.008,1.001c-1.169,1.117-1.198,2.946-0.088,4.107
		c0.57,0.595,1.345,0.885,2.105,0.885c0.731,0,1.462-0.276,2.032-0.813c0.395-0.377,0.789-0.769,1.169-1.161
		c1.111-1.161,1.082-2.989-0.088-4.107C66.118,61.064,64.276,61.108,63.151,62.254z"/>
	<path d="M77.985,39.151c-0.029-1.596-1.301-2.888-2.982-2.844c-1.608,0.029-2.894,1.364-2.865,2.961c0,0.232,0.015,0.464,0,0.726
		v0.682c-0.044,1.596,1.242,2.931,2.85,2.961h0.073c1.578,0,2.879-1.263,2.923-2.83c0-0.276,0.015-0.537,0.015-0.798
		C78,39.732,77.985,39.441,77.985,39.151z"/>
	<path d="M73.747,50.006c-1.505-0.58-3.201,0.16-3.785,1.654c-0.175,0.435-0.351,0.871-0.541,1.292
		c-0.654,1.466,0.013,3.18,1.489,3.829c0.373,0.164,0.777,0.249,1.186,0.249c1.125,0,2.192-0.639,2.675-1.727
		c0.234-0.508,0.438-1.03,0.643-1.538C75.998,52.27,75.252,50.587,73.747,50.006z"/>
	<path d="M66.191,12.536c-1.169-1.103-3.011-1.059-4.136,0.087c-1.111,1.161-1.081,2.989,0.088,4.107
		c0.322,0.334,0.658,0.653,0.994,1.001c0.57,0.595,1.345,0.885,2.105,0.885c1.618,0.002,2.931-1.298,2.933-2.905
		c0.001-0.751-0.291-1.473-0.813-2.015C66.98,13.305,66.585,12.913,66.191,12.536z"/>
	<path d="M69.947,28.31c0.585,1.489,2.275,2.225,3.774,1.644c0.004-0.001,0.008-0.003,0.011-0.004
		c1.505-0.58,2.251-2.264,1.666-3.759c-0.205-0.522-0.409-1.03-0.643-1.524c-0.654-1.467-2.381-2.129-3.858-1.48
		c-1.477,0.649-2.145,2.365-1.491,3.831C69.596,27.44,69.771,27.875,69.947,28.31z"/>
</g>
</svg>
